<?xml version="1.0" encoding="UTF-8" standalone="no"?>
<!-- Generator: Adobe Illustrator 16.0.0, SVG Export Plug-In . SVG Version: 6.00 Build 0)  -->

<svg
   xmlns:dc="http://purl.org/dc/elements/1.1/"
   xmlns:cc="http://creativecommons.org/ns#"
   xmlns:rdf="http://www.w3.org/1999/02/22-rdf-syntax-ns#"
   xmlns:svg="http://www.w3.org/2000/svg"
   xmlns="http://www.w3.org/2000/svg"
   xmlns:sodipodi="http://sodipodi.sourceforge.net/DTD/sodipodi-0.dtd"
   xmlns:inkscape="http://www.inkscape.org/namespaces/inkscape"
   version="1.1"
   id="Layer_1"
   x="0px"
   y="0px"
   width="400"
   height="400"
   viewBox="0 0 400 400"
   enable-background="new 0 0 870.878 500"
   xml:space="preserve"
   sodipodi:docname="ZEM-icon.svg"
   inkscape:version="0.92.1 r15371"><metadata
     id="metadata3823"><rdf:RDF><cc:Work
         rdf:about=""><dc:format>image/svg+xml</dc:format><dc:type
           rdf:resource="http://purl.org/dc/dcmitype/StillImage" /><dc:title></dc:title></cc:Work></rdf:RDF></metadata><defs
     id="defs3821" /><sodipodi:namedview
     pagecolor="#ffffff"
     bordercolor="#666666"
     borderopacity="1"
     objecttolerance="10"
     gridtolerance="10"
     guidetolerance="10"
     inkscape:pageopacity="0"
     inkscape:pageshadow="2"
     inkscape:window-width="1858"
     inkscape:window-height="1057"
     id="namedview3819"
     showgrid="false"
     inkscape:zoom="0.87268252"
     inkscape:cx="-191.2132"
     inkscape:cy="402.15247"
     inkscape:window-x="54"
     inkscape:window-y="-8"
     inkscape:window-maximized="1"
     inkscape:current-layer="Layer_1" /><g
     id="g3816"
     transform="matrix(1.0983767,0,0,1.2892657,-34.831774,-60.755265)"><path
       d="m 299.89,357.245 h -172 c -52.8,0 -96,-43.2 -96,-96 V 143.308 c 0,-52.8 43.2,-96 96,-96 h 172 c 52.8,0 96,43.2 96,96 v 117.937 c 0,52.8 -43.201,96 -96,96 z"
       id="path3758"
       inkscape:connector-curvature="0"
       style="fill:#7cc1aa" /><path
       d="M 233.988,344.731 142.925,326.836 C 75.952,313.676 31.924,248.113 45.083,181.14 l 4.012,-20.414 C 62.255,93.753 127.819,49.724 194.791,62.884 l 91.063,17.894 c 66.973,13.16 111.001,78.723 97.841,145.696 l -4.011,20.415 c -13.16,66.973 -78.723,111.003 -145.696,97.842 z"
       id="path3760"
       inkscape:connector-curvature="0"
       style="fill:#98d3bc" /><g
       id="g3814"><ellipse
         cx="209.017"
         cy="201.39799"
         rx="152.702"
         ry="117.679"
         id="ellipse3762"
         style="fill:#5f9dbc" /><path
         d="m 358.217,226.09 c -8.406,41.094 -67.292,110.148 -151.885,110.148 -84.593,0 -123.399,-42.903 -143.188,-98.766 0,0 -1.576,-4.67 -1.576,-5.604 l 17.745,-0.233 v -14.009 l 40.627,-15.877 16.345,1.401 v -48.566 l 38.759,-24.75 48.099,21.014 v 42.495 l 14.943,4.67 v -86.858 l 36.892,-24.283 55.104,18.679 v 120.014 h 26.151"
         id="path3764"
         inkscape:connector-curvature="0"
         style="fill:#ffffff" /><polygon
         points="151.316,154.566 139.817,161.137 139.817,176.469 151.316,169.351 "
         id="polygon3766"
         style="fill:#cfcece" /><polygon
         points="168.656,144.162 157.157,150.732 157.157,166.065 168.656,158.946 "
         id="polygon3768"
         style="fill:#cfcece" /><polygon
         points="151.316,178.659 139.817,185.23 139.817,200.563 151.316,193.444 "
         id="polygon3770"
         style="fill:#cfcece" /><polygon
         points="168.656,168.255 157.157,174.826 157.157,190.159 168.656,183.04 "
         id="polygon3772"
         style="fill:#cfcece" /><polygon
         points="96.558,219.728 85.059,224.109 85.059,239.441 96.558,234.513 "
         id="polygon3774"
         style="fill:#cfcece" /><polygon
         points="114.445,211.514 102.398,216.104 102.398,232.166 114.445,227.003 "
         id="polygon3776"
         style="fill:#cfcece" /><polygon
         points="96.558,243.822 85.059,248.202 85.059,263.535 96.558,258.606 "
         id="polygon3778"
         style="fill:#cfcece" /><polygon
         points="114.445,236.755 102.398,241.345 102.398,257.407 114.445,252.244 "
         id="polygon3780"
         style="fill:#cfcece" /><polygon
         points="151.316,202.753 139.817,209.324 139.817,224.656 151.316,217.538 "
         id="polygon3782"
         style="fill:#cfcece" /><polygon
         points="168.656,192.349 157.157,198.92 157.157,214.252 168.656,207.134 "
         id="polygon3784"
         style="fill:#cfcece" /><polygon
         points="151.316,226.847 139.817,233.417 139.817,248.75 151.316,241.631 "
         id="polygon3786"
         style="fill:#cfcece" /><polygon
         points="168.656,216.442 157.157,223.014 157.157,238.346 168.656,231.228 "
         id="polygon3788"
         style="fill:#cfcece" /><polygon
         points="151.316,250.94 139.817,257.512 139.817,272.844 151.316,265.725 "
         id="polygon3790"
         style="fill:#cfcece" /><polygon
         points="168.656,240.536 157.157,247.107 157.157,262.439 168.656,255.321 "
         id="polygon3792"
         style="fill:#cfcece" /><polygon
         points="252.515,108.038 242.762,114.273 242.762,128.822 252.515,122.067 "
         id="polygon3794"
         style="fill:#cfcece" /><polygon
         points="267.221,98.165 257.469,104.4 257.469,118.95 267.221,112.194 "
         id="polygon3796"
         style="fill:#cfcece" /><polygon
         points="252.515,130.901 242.762,137.136 242.762,151.686 252.515,144.931 "
         id="polygon3798"
         style="fill:#cfcece" /><polygon
         points="267.221,121.028 257.469,127.263 257.469,141.813 267.221,135.058 "
         id="polygon3800"
         style="fill:#cfcece" /><polygon
         points="252.515,153.764 242.762,160 242.762,174.549 252.515,167.794 "
         id="polygon3802"
         style="fill:#cfcece" /><polygon
         points="267.221,143.891 257.469,150.127 257.469,164.676 267.221,157.921 "
         id="polygon3804"
         style="fill:#cfcece" /><polygon
         points="252.515,176.627 242.762,182.863 242.762,197.412 252.515,190.657 "
         id="polygon3806"
         style="fill:#cfcece" /><polygon
         points="267.221,166.755 257.469,172.99 257.469,187.54 267.221,180.784 "
         id="polygon3808"
         style="fill:#cfcece" /><polygon
         points="252.515,199.491 242.762,205.726 242.762,220.276 252.515,213.521 "
         id="polygon3810"
         style="fill:#cfcece" /><polygon
         points="267.221,189.618 257.469,195.854 257.469,210.403 267.221,203.648 "
         id="polygon3812"
         style="fill:#cfcece" /></g></g></svg>