<?xml version="1.0" encoding="UTF-8"?>
<!DOCTYPE svg PUBLIC "-//W3C//DTD SVG 1.1//EN" "http://www.w3.org/Graphics/SVG/1.1/DTD/svg11.dtd">
<!-- Creator: CorelDRAW X6 -->
<svg xmlns="http://www.w3.org/2000/svg" xml:space="preserve" width="210mm" height="297mm" version="1.1" style="shape-rendering:geometricPrecision; text-rendering:geometricPrecision; image-rendering:optimizeQuality; fill-rule:evenodd; clip-rule:evenodd"
viewBox="0 0 21000 29700"
 xmlns:xlink="http://www.w3.org/1999/xlink"
 xmlns:dc="http://purl.org/dc/elements/1.1/"
 xmlns:cc="http://creativecommons.org/ns#"
 xmlns:rdf="http://www.w3.org/1999/02/22-rdf-syntax-ns#"
 xmlns:svg="http://www.w3.org/2000/svg"
 xmlns:sodipodi="http://sodipodi.sourceforge.net/DTD/sodipodi-0.dtd"
 xmlns:inkscape="http://www.inkscape.org/namespaces/inkscape"
 enable-background="new 0 0 870.878 500"
 sodipodi:docname="ZEM-icon.svg"
 inkscape:version="0.92.1 r15371">
 <defs>
  <style type="text/css">
   <![CDATA[
    .str0 {stroke:#FEFEFE;stroke-width:20}
    .fil0 {fill:#FEFEFE}
    .fil3 {fill:#5F9DBC}
    .fil1 {fill:#7CC1AA}
    .fil2 {fill:#98D3BC}
    .fil5 {fill:#CFCECE}
    .fil4 {fill:white}
   ]]>
  </style>
 </defs>
 <g id="Camada_x0020_1">
  <metadata id="CorelCorpID_0Corel-Layer"/>
  <rect class="fil0 str0" x="5218" y="8760" width="10784" height="10806" rx="3001" ry="3001"/>
  <g id="ZEM-icon.svg">
   <sodipodi:namedview pagecolor="#ffffff" bordercolor="#666666" borderopacity="1" objecttolerance="10" gridtolerance="10" guidetolerance="10" inkscape:pageopacity="0" inkscape:pageshadow="2" inkscape:window-width="1858" inkscape:window-height="1057" id="namedview3819" showgrid="false" inkscape:zoom="0.87268252" inkscape:cx="-191.2132" inkscape:cy="402.15247" inkscape:window-x="54" inkscape:window-y="-8" inkscape:window-maximized="1" inkscape:current-layer="Layer_1"/>
   <g id="g3816">
    <path id="path3758" class="fil1" d="M13113 19438l-4999 0c-1534,0 -2790,-1474 -2790,-3275l0 -4023c0,-1801 1255,-3275 2790,-3275l4999 0c1534,0 2790,1474 2790,3275l0 4023c0,1801 -1255,3275 -2790,3275l0 0z" inkscape:connector-curvature="0"/>
    <path id="path3760" class="fil2" d="M11197 19011l-2646 -610c-1946,-449 -3226,-2685 -2843,-4970l117 -696c382,-2285 2288,-3786 4234,-3338l2646 610c1946,449 3226,2685 2843,4970l-117 696c-382,2285 -2288,3787 -4234,3338l0 0z" inkscape:connector-curvature="0"/>
    <g id="g3814">
     <ellipse id="ellipse3762" class="fil3" cx="10472" cy="14122" rx="4438" ry="4014"/>
     <path id="path3764" class="fil4" d="M14808 14964c-244,1402 -1956,3757 -4414,3757 -2458,0 -3586,-1464 -4161,-3369 0,0 -46,-159 -46,-191l516 -8 0 -478 1181 -542 475 48 0 -1657 1126 -844 1398 717 0 1450 434 159 0 -2963 1072 -828 1601 637 0 4094 760 0m58 18l0 0 0 0z" inkscape:connector-curvature="0"/>
     <polygon id="polygon3766" class="fil5" points="8795,12524 8461,12748 8461,13271 8795,13028 "/>
     <polygon id="polygon3768" class="fil5" points="9299,12169 8965,12393 8965,12916 9299,12674 "/>
     <polygon id="polygon3770" class="fil5" points="8795,13346 8461,13570 8461,14093 8795,13850 "/>
     <polygon id="polygon3772" class="fil5" points="9299,12991 8965,13215 8965,13738 9299,13495 "/>
     <polygon id="polygon3774" class="fil5" points="7203,14747 6869,14896 6869,15419 7203,15251 "/>
     <polygon id="polygon3776" class="fil5" points="7723,14467 7373,14623 7373,15171 7723,14995 "/>
     <polygon id="polygon3778" class="fil5" points="7203,15569 6869,15718 6869,16241 7203,16073 "/>
     <polygon id="polygon3780" class="fil5" points="7723,15328 7373,15484 7373,16032 7723,15856 "/>
     <polygon id="polygon3782" class="fil5" points="8795,14168 8461,14392 8461,14915 8795,14672 "/>
     <polygon id="polygon3784" class="fil5" points="9299,13813 8965,14037 8965,14560 9299,14317 "/>
     <polygon id="polygon3786" class="fil5" points="8795,14990 8461,15214 8461,15737 8795,15494 "/>
     <polygon id="polygon3788" class="fil5" points="9299,14635 8965,14859 8965,15382 9299,15139 "/>
     <polygon id="polygon3790" class="fil5" points="8795,15812 8461,16036 8461,16559 8795,16316 "/>
     <polygon id="polygon3792" class="fil5" points="9299,15457 8965,15681 8965,16204 9299,15961 "/>
     <polygon id="polygon3794" class="fil5" points="11736,10937 11452,11150 11452,11646 11736,11416 "/>
     <polygon id="polygon3796" class="fil5" points="12163,10600 11880,10813 11880,11309 12163,11079 "/>
     <polygon id="polygon3798" class="fil5" points="11736,11717 11452,11930 11452,12426 11736,12195 "/>
     <polygon id="polygon3800" class="fil5" points="12163,11380 11880,11593 11880,12089 12163,11859 "/>
     <polygon id="polygon3802" class="fil5" points="11736,12497 11452,12710 11452,13206 11736,12975 "/>
     <polygon id="polygon3804" class="fil5" points="12163,12160 11880,12373 11880,12869 12163,12639 "/>
     <polygon id="polygon3806" class="fil5" points="11736,13277 11452,13489 11452,13986 11736,13755 "/>
     <polygon id="polygon3808" class="fil5" points="12163,12940 11880,13153 11880,13649 12163,13418 "/>
     <polygon id="polygon3810" class="fil5" points="11736,14057 11452,14269 11452,14766 11736,14535 "/>
     <polygon id="polygon3812" class="fil5" points="12163,13720 11880,13933 11880,14429 12163,14198 "/>
    </g>
   </g>
  </g>
 </g>
</svg>
